PathFileType	4	(X/Y/Z)	Patient4_TMGait_0pt3_02_right_13.trc.trc
DataRate	CameraRate	NumFrames	NumMarkers	Units	OrigDataRate	OrigDataStartFrame	OrigNumFrames
53.231939163498	53.231939163498	4	33	mm	53.231939163498	89	       141
Frame#	Time	Sacral			L.Shoulder			Chest			R.Shoulder			Neck			R.ASIS			L.ASIS			R.Thigh.Superior			R.Thigh.Lateral			R.Thigh.Inferior			R.Patella			L.Thigh.Superior			L.Thigh.Lateral			L.Thigh.Inferior			L.Patella			L.Shank.Superior			L.Shank.Lateral			L.Shank.Inferior			R.Shank.Superior			R.Shank.Lateral			R.Shank.Inferior			R.Heel			R.Midfoot.Superior			R.Midfoot.Lateral			R.Toe			L.Heel			L.Midfoot.Lateral			L.Midfoot.Superior			L.Toe			L.Elbow			L.Wrist			R.Elbow			R.Wrist			
		X1	Y1	Z1	X2	Y2	Z2	X3	Y3	Z3	X4	Y4	Z4	X5	Y5	Z5	X6	Y6	Z6	X7	Y7	Z7	X8	Y8	Z8	X9	Y9	Z9	X10	Y10	Z10	X11	Y11	Z11	X12	Y12	Z12	X13	Y13	Z13	X14	Y14	Z14	X15	Y15	Z15	X16	Y16	Z16	X17	Y17	Z17	X18	Y18	Z18	X19	Y19	Z19	X20	Y20	Z20	X21	Y21	Z21	X22	Y22	Z22	X23	Y23	Z23	X24	Y24	Z24	X25	Y25	Z25	X26	Y26	Z26	X27	Y27	Z27	X28	Y28	Z28	X29	Y29	Z29	X30	Y30	Z30	X31	Y31	Z31	X32	Y32	Z32	X33	Y33	Z33	

89	26.053142857143	696.969662235112	1012.785762607381	496.779553534549	854.444335991407	1418.466544166334	268.610094987670	982.180544119921	1357.137042806997	414.161450458748	932.790644706647	1449.462115737069	591.098225824735	869.792868053067	1491.817057462866	419.599201611109	933.648905894625	935.628505225125	585.447873248416	890.381076356257	958.724408443860	315.777845019781	929.503699574609	720.683054385233	562.838020832970	832.152811689757	625.444625845276	632.396305296808	891.911933447030	557.578782065915	551.727330361441	870.347246757753	460.406701348173	567.486810397441	957.974038918359	759.904341165421	352.021074198835	883.285873677938	634.646439636843	292.180042815352	976.932188073468	567.687041442906	355.681138490725	984.897053116136	497.442900637300	363.125088114289	961.849169672249	424.488315455069	354.423934626401	879.937653780770	305.421427451413	301.825795610509	937.699905722318	196.133171691226	371.161264040008	804.162701949786	390.600854902682	578.439510576502	696.640277144357	327.496699542719	643.536347448279	698.799771773647	219.475685945717	589.026931574938	511.069439890409	104.441738298547	563.688468718720	689.154182297477	106.634308449387	606.681582153631	585.904897212135	72.504687030490	640.122651775295	785.886467505394	36.137931250829	638.913518888392	816.686399367075	37.827177843479	408.714436678542	892.509011060562	35.698448586834	329.464623634851	974.623972580877	96.775158971096	358.434414942133	1103.687231767172	46.997570080426	332.800071168878	779.734053541540	1064.805538169009	180.696308929885	879.628598685301	823.114533697302	179.838387787707	1098.894659745199	1150.763305675095	696.036288565944	1334.137088032062	1184.782374791317	604.702087724648	
90	26.071928571429	697.317361444540	1012.601681190130	490.960802624485	856.129514528938	1419.981042648494	265.458254074408	982.388323944920	1358.446094551889	412.178266823763	930.851534388772	1449.857519929551	588.924341983667	869.736302445321	1492.646508057298	416.997026105499	933.672733626257	936.406993549677	581.301120937427	892.280844602174	959.487036791525	311.415419443440	932.597779096281	721.935405161219	559.516459981723	836.650994615126	625.680843287513	629.111436377077	898.371505700629	558.003985551450	549.381859355133	877.477259669226	459.474564460907	566.500059191988	958.956319286805	759.412123347217	347.912828387443	883.554376255724	634.242914569837	289.040867126973	976.508027993719	566.967260519725	353.040707770288	984.041321570703	496.569681245806	360.935414367779	960.214938432192	423.587622145943	352.728288360008	877.350220390045	305.053289688066	300.529102739785	933.525510547949	195.570088779733	370.621558365489	809.352687684752	390.719677257451	577.391475068225	699.702009782192	330.802567146940	641.957386333191	699.993971855936	222.090576256210	588.805098446353	509.483389710689	112.704403503484	563.572152726973	687.341224416872	107.876031290184	607.059580068599	582.775598819918	77.637498320603	640.024289175212	780.599213367521	35.846899155531	638.875315654995	811.041661386634	37.871996413657	408.718368778663	886.855309546038	35.701193096210	329.468837819681	969.114329339790	96.623095403417	358.434537180553	1098.159230153629	46.407972301834	332.745510466651	790.224609172159	1065.529590833962	172.774592138488	893.676659896692	825.391880350932	173.163243849901	1091.698594411068	1146.508393135684	693.254516768643	1331.314068840368	1165.700407994213	607.528639713383	
91	26.090714285714	697.468015355407	1012.099794003809	485.045304003468	857.854008484714	1421.326987568305	262.505874284331	982.471965022205	1359.471815662467	410.449137584878	928.678603973676	1449.815264672161	587.018633866883	869.623011935215	1493.220356999090	414.637331349052	933.495517742263	936.960552004597	577.200811841700	894.120554993485	960.039773188258	307.089236835809	936.116819863703	723.152876994146	556.204124630922	841.861358738845	625.709354436292	625.807960836879	905.716706638806	558.393069940728	546.985292125985	885.665493623290	458.473647449494	565.435001692869	960.106944403852	758.894908569202	344.037654978488	884.305036102776	633.682940436821	286.047754602170	976.605140719742	566.224760106011	350.670414288689	983.801215200211	495.599520502722	358.970196916264	959.066105693938	422.543448133643	351.237279919854	875.145492038441	304.663052019148	299.352308340380	929.550517315477	194.945410833928	370.201114984088	815.575758659865	390.727292170602	576.306548320450	703.809355147307	334.250515839614	640.343918443226	701.994931866255	224.934837742695	588.593856231254	508.794614586063	121.958301485204	563.401460917268	685.941043274753	109.329060533886	607.467773984083	580.145405346415	83.526178021834	639.889803928368	775.213985588499	35.412851903667	638.872520130258	805.395646653189	37.931390942954	408.713219660428	881.209726475661	35.717509338508	329.477733589508	963.623165483956	96.484501537100	358.459080100239	1092.639769807951	45.798659747700	332.707806047448	801.193487018279	1066.259946404106	165.183865547258	908.075907870512	827.689583913256	166.819172179764	1083.433084729569	1141.532820940560	690.914193073348	1326.380230259452	1144.566633715890	611.057067527177	
92	26.109500000000	697.422341488614	1011.253980777496	479.040629284072	859.620724232635	1422.460803931374	259.749995686342	982.432184327531	1360.162967742074	408.963865003835	926.268861217426	1449.286598171979	585.363553598617	869.452757587565	1493.498275339715	412.518922073374	933.104532274594	937.279136489127	573.155697495653	895.900478475267	960.326463065126	302.814872314723	940.044848065191	724.343698878258	552.891727517124	847.778856399374	625.570150947025	622.501821812908	913.884089983204	558.793637850933	544.509556625808	894.867051353712	457.475889811575	564.247782728763	961.449591967968	758.331316148076	340.447251540335	885.588476535594	632.926619351966	283.243356706144	977.291345177238	565.436283198065	348.627175065822	984.258522403815	494.502844468138	357.285843694600	958.464397109583	421.323594965547	349.993591453396	873.362886433801	304.243373659113	298.331034737262	925.787125319591	194.243868392055	369.917321642218	822.813896784887	390.679806004489	575.147341167166	708.987772255950	337.885632446910	638.678650275417	704.834563863929	228.073520634605	588.361631563200	509.150168806788	132.288124796932	563.101419868830	684.984881184129	111.075251478946	607.865522737922	578.104706079328	90.293482895844	639.664672160199	769.708729843105	34.807129150721	638.919215357879	799.757286509476	38.007942623818	408.698924464524	875.580337711047	35.750950396412	329.493656941193	958.155897625464	96.359482365037	358.516080609693	1087.132859622222	45.177048502339	332.689068199708	812.474473612966	1066.993093828563	158.005718732352	922.874488350733	830.096213551030	160.800278419995	1074.125079350786	1135.880603656164	688.983436310852	1319.112653083972	1121.507741229156	615.275457243795	
